<svg viewBox="0 0 22 22" fill="none" xmlns="http://www.w3.org/2000/svg"><path d="M14.02 8.1c.53.26 1.05.18 1.49-.26.52-.53.52-1.31 0-1.84a1.27 1.27 0 0 0-1.84 0c-.44.35-.52.96-.26 1.49l-3.24 3.24-7.09-7.18a10.5 10.5 0 1 0 14.88 14.88l-7.09-7.1 3.15-3.23Zm.26-1.49a.42.42 0 0 1 .62 0c.17.18.17.44 0 .62a.42.42 0 0 1-.62 0 .42.42 0 0 1 0-.62Zm-9.97 10.6a8.88 8.88 0 0 1-1.14-11.03l12.16 12.16a8.88 8.88 0 0 1-11.02-1.14Z" fill="#fff"/><path d="M14.46.49c-1.58 0-3.06.52-4.2 1.49 0 0-.44.43-.09.7.35.26.7-.1.7-.1a5.74 5.74 0 0 1 8.05 8.06s-.35.44-.09.7c.27.26.8-.09.8-.09a6.48 6.48 0 0 0 1.48-4.2 6.75 6.75 0 0 0-6.65-6.56Z" fill="#fff"/><path d="M14.46 3.11c-.88 0-1.66.27-2.28.8 0 0-.35.43-.08.7.26.25.7-.1.7-.1a2.7 2.7 0 0 1 1.66-.52 3.1 3.1 0 0 1 3.06 3.06 2.7 2.7 0 0 1-.52 1.66s-.44.44-.1.8c.36.34.8-.1.8-.1.43-.7.7-1.48.7-2.36a3.92 3.92 0 0 0-3.94-3.94Z" fill="#fff"/></svg>