<svg width="30" height="30" viewBox="0 0 30 30" fill="none" xmlns="http://www.w3.org/2000/svg">
<path d="M19.0219 12.1015C19.5469 12.364 20.0719 12.2765 20.5094 11.839C21.0344 11.314 21.0344 10.5265 20.5094 10.0015C19.9844 9.47651 19.1969 9.47651 18.6719 10.0015C18.2344 10.3515 18.1469 10.964 18.4094 11.489L15.1719 14.7265L8.08438 7.55151C3.97187 11.664 3.97187 18.314 8.08438 22.4265C12.1969 26.539 18.8469 26.539 22.9594 22.4265L15.8719 15.339L19.0219 12.1015ZM19.2844 10.614C19.4594 10.439 19.7219 10.439 19.8969 10.614C20.0719 10.789 20.0719 11.0515 19.8969 11.2265C19.7219 11.4015 19.4594 11.4015 19.2844 11.2265C19.1094 11.0515 19.1094 10.789 19.2844 10.614ZM9.30938 21.2015C6.33438 18.2265 5.98437 13.589 8.17188 10.1765L20.3344 22.339C16.9219 24.5265 12.2844 24.1765 9.30938 21.2015Z" fill="white"/>
<path d="M19.4594 4.48901C17.8844 4.48901 16.3969 5.01401 15.2594 5.97651C15.2594 5.97651 14.8219 6.41401 15.1719 6.67651C15.5219 6.93901 15.8719 6.58901 15.8719 6.58901C16.8344 5.80151 18.1469 5.36401 19.4594 5.36401C22.6094 5.36401 25.1469 7.90151 25.1469 11.0515C25.1469 12.364 24.7094 13.6765 23.9219 14.639C23.9219 14.639 23.5719 15.0765 23.8344 15.339C24.0969 15.6015 24.6219 15.2515 24.6219 15.2515C25.5844 14.114 26.1094 12.6265 26.1094 11.0515C26.0219 7.46401 23.0469 4.48901 19.4594 4.48901Z" fill="white"/>
<path d="M19.4594 7.11401C18.5844 7.11401 17.7969 7.37651 17.1844 7.90151C17.1844 7.90151 16.8344 8.33901 17.0969 8.60151C17.3594 8.86401 17.7969 8.51401 17.7969 8.51401C18.2344 8.16401 18.8469 7.98901 19.4594 7.98901C21.1219 7.98901 22.5219 9.38901 22.5219 11.0515C22.5219 11.664 22.3469 12.2765 21.9969 12.714C21.9969 12.714 21.5594 13.1515 21.9094 13.5015C22.2594 13.8515 22.6969 13.414 22.6969 13.414C23.1344 12.714 23.3969 11.9265 23.3969 11.0515C23.3969 8.86401 21.6469 7.11401 19.4594 7.11401Z" fill="white"/>
</svg>
