<svg viewBox="0 0 88 109" fill="none" xmlns="http://www.w3.org/2000/svg"><path d="m1.34 97.1 3.57 2.06.61-5 28.17-16.27c1-.58 1.82-2 1.82-3.16v-61.66l2.55-10.89-3.57-2.06h-.01c-.33-.19-.79-.16-1.29.13l-30.58 17.66c-1 .58-1.82 2-1.82 3.16v74.84c0 .59.21 1 .55 1.18Z" fill="#D9D9D9"/><path d="m38.06 2.18-3.57-2.06h-.01c-.33-.19-.79-.16-1.28.13l-30.59 17.66c-.5.29-.96.79-1.29 1.36l16.32 9.42 17.87-10.07v-5.55l2.55-10.89Z" fill="#AEB5B7"/><path d="M38.6 3.37c0-1.16-.81-1.63-1.82-1.05l-30.58 17.66a4.02 4.02 0 0 0-1.83 3.16l.01 74.84c0 1.16.82 1.63 1.82 1.05l30.59-17.66c1-.58 1.82-2 1.82-3.16v-74.84Zm-2.67 75.2-28.93 16.7c-.67.39-1.22.08-1.22-.7l-.02-69.64c0-.78.55-1.72 1.22-2.11l7.41-4.3.18-.09c.68-.38 1.22-.07 1.22.7v.49c0 .34.1.6.28.74l.07.04v.01c.22.13.53.1.87-.09l8.97-5.18a2.67 2.67 0 0 0 1.22-2.1v-.5c0-.77.55-1.7 1.21-2.1l7.5-4.33c.67-.38 1.22-.07 1.22.7l.01 69.64a2.7 2.7 0 0 1-1.21 2.11Z" fill="#DCEEFF"/><path d="m18.44 16.2 4.35-2.5c.38-.22.68-.12.68.21 0 .34-.3.79-.68 1l-4.35 2.52c-.38.21-.68.12-.68-.22 0-.34.3-.79.68-1Zm5.52-2.6c0 .34.23.47.51.3.28-.16.51-.56.51-.88 0-.33-.23-.46-.51-.3-.28.16-.51.56-.51.89Z" fill="#031F60"/><path d="M37.14 76.45a2.7 2.7 0 0 1-1.21 2.11l-28.93 16.7c-.68.4-1.22.09-1.22-.7v-.26l-.02-69.37c0-.77.55-1.72 1.22-2.1l7.41-4.3.18-.1c.67-.38 1.22-.07 1.22.7v.49c0 .78.54 1.1 1.22.7l8.97-5.18a2.67 2.67 0 0 0 1.22-2.1v-.5c0-.77.55-1.7 1.21-2.1l7.33-4.23.17-.1c.67-.38 1.22-.07 1.22.7l.01 69.64Z" fill="#0B3FA5"/><path d="m35.91 6.11-.17.1-1.45.84v68.7l2.67 1.54c.11-.28.18-.57.18-.84l-.01-69.63c0-.78-.55-1.1-1.22-.7Z" fill="#608232"/><path d="M35.75 75.58a2.7 2.7 0 0 1-1.21 2.11l-28.76 16.61-.02-69.37c0-.78.55-1.72 1.22-2.11l7.41-4.3v.23c0 .78.55 1.1 1.23.7l.17-.1v.27c0 .78.54 1.1 1.22.7l8.97-5.18a2.67 2.67 0 0 0 1.22-2.11v-.48c0-.78.55-1.72 1.21-2.11l7.33-4.23.01 69.37Z" fill="#6B99D1" fill-opacity=".68"/><path d="M30.41 53.4c3.36-12.66 4.86-35.11 5.33-43.76v-3.43l-7.33 4.23a2.71 2.71 0 0 0-1.21 2.1v.49c0 .78-.54 1.72-1.22 2.1l-8.97 5.19c-.68.4-1.22.08-1.22-.7v-.27l-.17.1c-.68.4-1.22.08-1.22-.7v-.22l-7.42 4.29a2.7 2.7 0 0 0-1.22 2.1l.02 61.16c.4-.25 19.25-12.35 24.63-32.67Z" fill="#6B99D1"/><path d="m16.07 20.36-1.35-.84c-.22-.15-.33-.42-.33-.77v-.22l.18-.1c.67-.38 1.22-.07 1.22.7v.49c0 .34.1.6.28.74Z" fill="#031F60"/><path opacity=".45" d="M46.98 73.3c.06-.13.1-.26.12-.39l.02-.07c.03-.13.04-.26.04-.38l-.01-69.64c0-.78-.55-1.09-1.22-.7l-.17.1-1.45.84-5.88 3.39a2.71 2.71 0 0 0-1.21 2.1v.49c0 .78-.54 1.72-1.22 2.1l-8.97 5.19c-.68.4-1.22.08-1.22-.7v-.49c0-.77-.54-1.09-1.22-.7l-.17.1-7.42 4.29a2.7 2.7 0 0 0-1.22 2.1l.03 69.38v.27c0 .78.54 1.08 1.21.7l28.93-16.7c.44-.27.82-.76 1.03-1.29Z" fill="#E9FFFB"/><path d="M46.98 73.3c.06-.13.1-.26.12-.39l.02-.07c.03-.13.04-.26.04-.38l-.01-69.64c0-.78-.55-1.09-1.22-.7l-.17.1-1.45.84-5.88 3.39a2.71 2.71 0 0 0-1.21 2.1v.49c0 .78-.54 1.72-1.22 2.1l-8.97 5.19c-.68.4-1.22.08-1.22-.7v-.49c0-.77-.54-1.09-1.22-.7l-.17.1-7.42 4.29a2.7 2.7 0 0 0-1.22 2.1l.03 69.38v.27c0 .78.54 1.08 1.21.7l28.93-16.7c.44-.27.82-.76 1.03-1.29Z" stroke="#C8E2FF" stroke-miterlimit="10"/><path opacity=".8" d="M20.8 24.67v51.79c0 1.16.82 1.63 1.82 1.05l24.88-14.36c1.01-.59 1.83-2 1.83-3.16v-51.79c0-1.16-.82-1.63-1.83-1.05l-24.88 14.36c-1 .58-1.82 2-1.82 3.16Z" fill="#fff"/><path d="M20.8 24.67v51.79c0 1.16.82 1.63 1.82 1.05l24.88-14.36c1.01-.59 1.83-2 1.83-3.16v-51.79c0-1.16-.82-1.63-1.83-1.05l-24.88 14.36c-1 .58-1.82 2-1.82 3.16Z" stroke="#C8E2FF" stroke-miterlimit="10" stroke-linecap="round"/><path opacity=".8" d="m24.38 55.98 9.95-5.75c.4-.23.73-.04.73.43v.04a1.6 1.6 0 0 1-.73 1.26l-9.95 5.75c-.4.23-.73.04-.73-.43v-.04c0-.46.33-1.03.73-1.26Zm12.79-7.38 8.57-4.95c.4-.24.73-.05.73.42v.04a1.6 1.6 0 0 1-.73 1.26l-8.57 4.95c-.4.24-.73.05-.73-.42v-.04c0-.46.33-1.03.73-1.26Zm-12.79 15.5 9.95-5.74c.4-.24.73-.05.73.42v.04a1.6 1.6 0 0 1-.73 1.26l-9.95 5.75c-.4.23-.73.04-.73-.42v-.04c0-.47.33-1.04.73-1.27Zm12.79-7.38 8.57-4.95c.4-.23.73-.05.73.42v.04c0 .47-.32 1.03-.73 1.27l-8.57 4.95c-.4.23-.73.04-.73-.43v-.04c0-.46.33-1.03.73-1.26Zm-12.79 3.32 5.39-3.11c.4-.23.73-.05.73.42v.04c0 .47-.33 1.03-.73 1.27l-5.39 3.1c-.4.24-.73.05-.73-.42v-.04c0-.46.33-1.03.73-1.26Zm7.81-4.51 4.57-2.65c.4-.23.73-.05.73.42v.04c0 .47-.33 1.03-.73 1.27l-4.57 2.65c-.4.23-.73.04-.73-.42v-.04c0-.47.33-1.03.73-1.27Zm7.16-4.15 6.4-3.68c.4-.23.72-.04.72.43v.04c0 .47-.32 1.03-.73 1.26l-6.4 3.68c-.4.23-.72.04-.72-.43v-.04c0-.46.32-1.03.73-1.26Zm-14.97 16.82 8.68-5c.4-.23.73-.04.73.43v.04c0 .46-.33 1.03-.73 1.26l-8.68 5c-.4.24-.73.05-.73-.42v-.04c0-.47.33-1.03.73-1.26Zm11.1-6.4 4.57-2.65c.4-.23.73-.04.73.42v.05c0 .46-.33 1.03-.73 1.26l-4.57 2.65c-.4.24-.73.05-.73-.41v-.05c0-.46.33-1.03.73-1.26Zm7.16-4.14 3.1-1.79c.4-.23.73-.04.73.42v.05a1.6 1.6 0 0 1-.73 1.26l-3.1 1.78c-.4.23-.73.05-.73-.42v-.04c0-.47.33-1.03.73-1.26Zm-17.56-7.93 19.96-11.52v-23.05l-20 11.54.04 23.03Z" fill="#404040"/><path opacity=".7" d="m50.75 98.31 5.84-3.37c3.96-2.29 9.44-2.84 12.22-1.23 2.8 1.6 1.84 4.77-2.12 7.06l-5.84 3.37c-3.97 2.28-9.44 2.83-12.22 1.23-2.8-1.61-1.84-4.77 2.12-7.06Z" fill="#EEE"/><path d="M69.02 47.08c.13 1.12 1.5 5.77 1.22 7.43-.29 1.67-4.91 4.66-4.91 4.66l-.64-2.85 1.96-1.92c.36-.36.54-.87.46-1.38l-.57-3.9 2.48-2.04Z" fill="#FFA8A7"/><path d="m66.6 52.75-1.9-8.57c-.26-3.18 2.65-2.9 3.32-1.78.68 1.11 2.05 8.43 2.11 9.09.26 1.65.3 2.46.15 3.14-.14.68-1.77 2.62-4.95 4.54l-.64-2.85 1.9-3.57Z" fill="#5F7D21"/><path d="M66.11 93.22s.05.5.2 1.12c.12.49.15 1.12-.4 1.3-.55.17-1.17.11-1.53-.36-.43-.6-.66-1.33-1.3-1.9-.6-.55-1.36-1.18-1.58-2.06-.2-.8-.07-1.29.47-1.37.68-.1 1.77.48 2.32.89.4.3 1.82 2.38 1.82 2.38Zm-7.39 4.61.08 1.13c.04.5.22 1.3.06 1.68-.16.37-1 .64-1.96.64a4.79 4.79 0 0 0-2.29.85c-.61.54-2.03.75-2.87.5-.83-.27-1.76-.66-1.9-1.04-.14-.39.3-.58 2.34-1.51 2.03-.93 3.54-1.58 4.33-2.66l2.21.41Z" fill="#1D1E1C"/><path d="M66.6 82.38c-.34-2.67-.9-4.25-.9-4.25s.28-3.67.4-7.15c.15-3.75.38-8.46.45-9.4l-12.18 2.71s.77 14.57.9 16.47c.13 1.91.28 4.55.48 7 .25 3.1.51 9.96.51 9.96 1.3.74 2.49.47 2.49.47s1.05-8.55 1.23-10.74c.23-2.97-.52-5.5-.52-5.5l.63-6.87c.27-2.77.6-4.42.64-5.78l.24-.13s.25 5.38.38 7.28c.14 1.91.42 3.74.93 7.29.45 3.07 1.6 9.4 1.6 9.4 1.3.75 2.23.07 2.23.07s.84-8.16.5-10.83Z" fill="#D9D9D9"/><path d="M60.73 69.3s2.74-1.45 4.1-2.75c0 0-1.27 1.92-2.94 2.78 0 0-.59 6.67-.59 6.54l-.34-6.58-.23.01Z" fill="#434343"/><path d="M64.82 41.7c-.92.03-1.61.27-1.73 0-.09-.21-.21-1.45-.21-1.45l.2-.56a4.56 4.56 0 0 0-1.91-8.4c-2.36-.24-4.1 1.41-4.55 3.68-.25 1.13-.48 3.35.08 5.35.3 1.08.55 1.38 1.01 1.53.16.05 1.24.14 1.57.1l.2 1.15c.1.44.06.68-.83 1.23-.9.54 1.34 1.67 2.8 1.56 1.46-.11 3.1-1 3.55-1.94.5-1.05.46-2.29-.18-2.26Z" fill="#FBC6C6"/><path d="M64.82 41.7c-.92.03-1.61.27-1.73 0-.09-.21-.21-1.45-.21-1.45l.2-.56a4.9 4.9 0 0 0 1.1-.93l-3.09 1.01-.9-.18-.37-.21-.23-.42c0 .06-.14 1.4-.44 1.86-.3.45-1.07.98-1.49 1l.05.03c.16.05 1.24.13 1.57.1l.2 1.14c.08.4.06.64-.6 1.09l1.25.96 3.73-.07c.1-.06.2-.12.3-.2l1.11-1.7c.18-.8.03-1.5-.45-1.48Z" fill="#FBC6C6"/><path d="M63.57 39.85a4.95 4.95 0 0 0 1.66-3.55 4.56 4.56 0 0 0-4.06-5 3.93 3.93 0 0 0-3.77 1.77s.16.34.42.6c0 0-.2.58.17.99.26.3.27.6.28 1.1 0 .44-.06 1.2-.01 1.67.06.66.8.8.8.8s.04-1.48.17-1.63c.25-.55 1.25-.71 1.55.07.24.65.11 1.23-.1 1.86-.2.63-.82.6-1.1.43.02.3-.1 1.33.89 1.6.99.28 1.91.03 2.42-.24.3-.15.68-.47.68-.47Z" fill="#404040"/><path d="M57.82 33.66s-1.18.12-2.26-1.12c-1.08-1.24-.47-2.38.83-1.86 1.3.51 3.48.22 4.58.1 1.1-.1 4.02.49 3.72 2.85l-6.87.03Z" fill="#404040"/><path d="M63.48 41.83c.26.64-.4 1.42-2.13 1.97-1.75.55-1.9-.16-1.9-.16s-2.56 1.17-3.39 1.75c-1.04.73-1.5 2.84-1.65 6.41-.16 4.14-.5 12.28-.37 13.34 0 0 1.19.68 2.26-.87a5.71 5.71 0 0 0 3.31 2.36 6.5 6.5 0 0 0 7.53-3.44c-.03-3.62-1.04-6.66-.45-8.75 1.34-4.78 2.05-6.74 1.4-9.91-.54-2.62-1.3-2.94-2.33-2.92a22.1 22.1 0 0 0-2.28.22Z" fill="#8EC023"/><path d="M62.98 41.1s.16-.1.35.03c.19.13.7.62.7.62s.15 1.03-1.08 1.79c-1.23.77-2.7 1.17-4.23.44 0 0 .28-.99.38-1.16.1-.17.3-.2.3-.2s.38.5 1.86 0c1.47-.5 1.75-1.2 1.75-1.2l-.03-.32Z" fill="#76972F"/><path d="M50.48 55.89c2.05.52 2.53-.78 2.8-1.85.66-2.6 1-4.94 1.5-6.4.57-1.74 1.17-2.02 2.01-2.36 1-.4 1.85.44 1.52 2.65a44.3 44.3 0 0 1-1.88 7.55c-.26.8-.83 2.24-1.69 2.93-1.06.86-2.65.82-5.06.22-1.03-.26-2.16-.87-4.1-1.78-.53-.24-.94-.4-1.94-.87a6.86 6.86 0 0 1-2.57-2c-.53-.77-.6-1.13-.49-1.3.13-.22.37-.17.65.15s.7.9 1.48 1.37c0 0-.65-.67-1-1.1a5.58 5.58 0 0 1-.78-1.28c-.18-.44.2-1.04.49-.73.3.32.43.64.96 1.28.48.58.95.9.95.9s-.54-.72-.88-1.4a2.32 2.32 0 0 1-.31-1.28c.01-.23.34-.5.65-.07.27.4.45 1.02 1.1 1.69.47.49.86.76.88.63 0-.14-.29-.4-.46-.97-.16-.54 0-1.16.32-1.23.3-.07.25-.05.5.48s.64.92.93 1.7c.26.68.38.96.85 1.45.5.54 1.62 1.13 3.57 1.62Z" fill="#FBC6C6"/><path d="m49.15 55.47-1.15-.52c-.67.29-1.22 1.45-1 2.65l1.4.57.75-2.7Z" fill="#F5FBFB"/><path d="M56.94 44.87c-1.33.16-1.93.54-2.57 3.48-.64 2.95-1.05 5.82-1.56 6.47-.5.64-.74 1.56-3.82.4 0 0-1.43.56-1.29 2.95 0 0 1.67.64 3.52 1 1.87.36 3.57.19 4.7-2.15a36.28 36.28 0 0 0 2.52-8.77c.2-1.86-.28-3.53-1.5-3.38Z" fill="#76972F"/><path opacity=".1" d="m.74 106.54 34.41-19.77c.32-.18.84-.18 1.16 0l2.93 1.66c.32.19.32.49 0 .67l-34.42 19.76c-.32.19-.84.19-1.16 0l-2.92-1.65c-.32-.18-.32-.48 0-.67Z" fill="#fff"/></svg>