<svg viewBox="0 0 1480 805" fill="none" xmlns="http://www.w3.org/2000/svg"><mask id="a" style="mask-type:alpha" maskUnits="userSpaceOnUse" x="0" y="0" width="1480" height="805"><path fill="#404040" d="M0 0h1480v804.56h-1480z"/></mask><g mask="url(#a)" fill="#fff"><path opacity=".2" fill-rule="evenodd" clip-rule="evenodd" d="M965.8-6.69h240.85v239.65h289.73v569.93l-569.93-569.93h279l-239.65-239.65Zm256.35 816.74h-274.24v-271.85h-305.23v-310l307.62 307.61h271.85v274.24Z"/><path opacity=".2" d="M461.89 630.2h-106.4v106.4h106.4v-106.4Zm106.11 106.8h-106v68h106v-68Zm-278.75-735.07h-288.29v288.28h144.15l144.14 144.26v-144.26h144.26l-144.26-144.14v-144.14Zm672.75-1.93h-282v240h282v-240Zm-961.04 609.92v195.6h195.6l-195.6-195.6Z"/></g></svg>