<svg viewBox="0 0 274 54" fill="none" xmlns="http://www.w3.org/2000/svg"><path d="M81.1 38.56a1.69 1.69 0 0 0-.6-1.2 2.4 2.4 0 0 0-1.61-.46 4.01 4.01 0 0 0-1.2.2c-.16.05-.32.14-.46.25a.79.79 0 0 0-.27.38h-1.95c.1-.36.28-.7.53-.98.26-.27.56-.5.9-.67.36-.18.74-.31 1.14-.39.43-.08.87-.12 1.3-.12.62 0 1.22.08 1.8.27.46.16.89.41 1.25.74.35.31.61.7.79 1.13a4.41 4.41 0 0 1 .01 2.9 3.11 3.11 0 0 1-2.01 1.84c-.6.18-1.22.27-1.85.26a8.5 8.5 0 0 1-1.23-.1 4.6 4.6 0 0 1-1.16-.36 3.24 3.24 0 0 1-.93-.64 2.1 2.1 0 0 1-.55-.98h1.94c.07.14.18.26.3.35.15.1.3.19.47.25a4.04 4.04 0 0 0 1.19.19c.58.05 1.16-.12 1.64-.46a1.57 1.57 0 0 0 .58-1.18h-3.52v-1.22h3.5Zm3.76 4.06v-6.93h1.87v2.83h1.34l2.23-2.83h2.15l-2.76 3.3 2.98 3.63h-2.19l-2.3-2.8h-1.45v2.8h-1.87Zm12.88-7.05a5.9 5.9 0 0 1 1.84.26c.48.16.94.41 1.34.74.37.3.65.68.84 1.12.36.94.36 1.98 0 2.92-.17.43-.44.81-.78 1.12-.4.34-.86.58-1.36.73a6.3 6.3 0 0 1-1.85.25 5.94 5.94 0 0 1-1.84-.26c-.5-.15-.95-.4-1.33-.72a3 3 0 0 1-.79-1.12 3.82 3.82 0 0 1-.27-1.46c0-.5.09-1 .27-1.46.17-.43.44-.82.79-1.12.4-.33.85-.58 1.34-.74a5.9 5.9 0 0 1 1.82-.26m0 5.83c.37.01.75-.05 1.1-.17a1.97 1.97 0 0 0 1.17-1.19 2.74 2.74 0 0 0 0-1.77 1.9 1.9 0 0 0-1.17-1.19 3.27 3.27 0 0 0-1.1-.17c-.37 0-.74.05-1.09.17-.28.1-.53.27-.74.48a2 2 0 0 0-.43.71 2.74 2.74 0 0 0 0 1.77 1.88 1.88 0 0 0 1.17 1.2 3 3 0 0 0 1.09.16Zm10.1 1.31a5.8 5.8 0 0 1-1.83-.26c-.48-.14-.92-.4-1.3-.72-.35-.3-.62-.69-.79-1.12a3.85 3.85 0 0 1-.26-1.43c0-.5.1-.99.28-1.45a3 3 0 0 1 .78-1.13 4 4 0 0 1 1.33-.75 6.65 6.65 0 0 1 3.16-.15 3.23 3.23 0 0 1 1.93 1.12c.22.3.39.65.47 1.03h-1.9a1.2 1.2 0 0 0-.64-.7 2.75 2.75 0 0 0-1.2-.24c-.37 0-.74.06-1.08.2a1.84 1.84 0 0 0-1.13 1.23 2.8 2.8 0 0 0 0 1.71 1.78 1.78 0 0 0 1.16 1.18c.35.13.71.18 1.08.17.42.02.85-.07 1.23-.25a1.2 1.2 0 0 0 .62-.7h1.94a2.65 2.65 0 0 1-1.36 1.73c-.36.2-.75.33-1.14.4-.45.09-.9.13-1.34.13m7.46-.11h-1.75v-6.92h1.89v4.72l4.43-4.72h1.7v6.92h-1.88v-4.66l-4.39 4.66Zm12.42.1a5.77 5.77 0 0 1-1.82-.25c-.48-.15-.93-.4-1.31-.72-.35-.3-.62-.69-.79-1.12a3.83 3.83 0 0 1-.26-1.43c0-.5.09-1 .28-1.45a3 3 0 0 1 .78-1.13 4 4 0 0 1 1.32-.75 6.52 6.52 0 0 1 3.15-.15 3 3 0 0 1 1.89 1.12c.24.3.4.65.48 1.03h-1.95a1.16 1.16 0 0 0-.64-.7 2.72 2.72 0 0 0-1.2-.24c-.36 0-.73.06-1.07.19a1.85 1.85 0 0 0-1.14 1.23 3.08 3.08 0 0 0 .01 1.72c.08.27.23.51.43.7.2.22.45.38.73.48.34.12.7.18 1.08.17.42.02.85-.07 1.23-.26.3-.14.51-.39.62-.69h1.93a2.66 2.66 0 0 1-1.35 1.73 4.3 4.3 0 0 1-1.14.4c-.44.09-.9.13-1.34.13m12.6-7.01v1.3h-2.94v5.62h-1.87v-5.63h-2.95v-1.3h7.76Zm2.91 3.96a1.9 1.9 0 0 0 1.35 1.67 3.3 3.3 0 0 0 2.09-.02c.3-.1.57-.31.73-.6h1.94c-.1.34-.3.65-.55.9a3.1 3.1 0 0 1-.87.64c-.35.16-.73.28-1.1.35a7.36 7.36 0 0 1-3.12-.14c-.48-.15-.93-.4-1.31-.73-.35-.3-.62-.69-.79-1.12a3.93 3.93 0 0 1 .03-2.9c.17-.43.44-.81.78-1.12.39-.33.83-.58 1.3-.75a5.89 5.89 0 0 1 3.51 0c.46.16.88.41 1.24.73.35.3.62.67.79 1.08a3.54 3.54 0 0 1 .2 2h-6.22Zm4.43-1.13a1.56 1.56 0 0 0-.64-1.23c-.45-.3-.98-.45-1.52-.43a3 3 0 0 0-.93.14c-.24.07-.47.2-.67.35a1.77 1.77 0 0 0-.65 1.17h4.41Zm3.81-2.83h2.26l2.63 3.29 2.61-3.3h2.22v6.93h-1.85v-4.97l-2.77 3.42h-.44l-2.81-3.42v4.97h-1.85v-6.93Zm17.68 6.07c-.31.33-.7.58-1.14.71a5.7 5.7 0 0 1-2.84.1c-.36-.08-.7-.21-1-.4-.28-.17-.51-.4-.68-.67a1.7 1.7 0 0 1-.25-.92c-.01-.34.09-.68.28-.96a2 2 0 0 1 .79-.65c.36-.18.75-.3 1.15-.38a7.2 7.2 0 0 1 1.38-.12h2.24a1.56 1.56 0 0 0-.44-1.18 2.14 2.14 0 0 0-1.5-.43 3.1 3.1 0 0 0-1.09.16.98.98 0 0 0-.6.57h-1.93c.05-.35.21-.68.46-.93.24-.26.53-.48.85-.63.36-.18.74-.3 1.13-.36a7.44 7.44 0 0 1 2.75.07c.44.1.85.3 1.2.57.38.3.65.69.8 1.14.13.46.2.94.19 1.43v3.71h-1.64l-.11-.83Zm-.1-2.23h-1.85c-.32 0-.64.02-.96.06-.28.04-.54.13-.78.28a.69.69 0 0 0-.34.62.78.78 0 0 0 .45.79c.34.18.73.27 1.11.26a4 4 0 0 0 .96-.11c.28-.06.55-.17.78-.35.21-.16.38-.37.49-.61.12-.29.18-.6.17-.9m-75.42-16.82h9.33l-14.8-11.26.07-.05 14.27-10.55h-9.1l-11.6 8.2v-8.2h-6.78v21.86h6.78v-8.8l.09.06 11.74 8.74Zm113.39 0v-21.86h-9l-8.83 13.19h-.82l-.01-.03-8.8-13.16h-9v21.86h6.59v-14.25h.32l.02.03 8.05 11.36h6.5l8.06-11.39h.33v14.25h6.59Zm66.84-8.37h-6.93c-1.26 2.36-4.12 3.87-7.27 3.87-4.38 0-7.94-2.89-7.94-6.44 0-3.56 3.56-6.45 7.94-6.45a8.24 8.24 0 0 1 7.08 3.55h7.03c-1.63-5.25-7.44-8.92-14.12-8.92-8.03 0-14.56 5.3-14.56 11.8 0 6.5 6.53 11.8 14.56 11.8 3.25.03 6.44-.9 9.18-2.64a11.8 11.8 0 0 0 5.03-6.6m-47.12-14.36c-8.02 0-14.56 5.3-14.56 11.8 0 6.5 6.54 11.8 14.56 11.8 8.03 0 14.56-5.3 14.56-11.8 0-6.5-6.53-11.8-14.56-11.8Zm0 18.26c-4.37 0-7.94-2.89-7.94-6.44 0-3.56 3.57-6.45 7.94-6.45 4.38 0 7.95 2.89 7.95 6.45 0 3.55-3.57 6.44-7.95 6.44Zm-61.5-3.87h-6.94c-1.26 2.36-4.12 3.87-7.27 3.87-4.38 0-7.95-2.89-7.95-6.44 0-3.56 3.57-6.45 7.95-6.45a8.22 8.22 0 0 1 7.08 3.55h7.03c-1.63-5.25-7.43-8.92-14.11-8.92-8.03 0-14.56 5.3-14.56 11.8 0 6.5 6.53 11.8 14.56 11.8 3.25.03 6.44-.9 9.17-2.64a11.8 11.8 0 0 0 5.04-6.6m-47.14-14.36c-8.03 0-14.56 5.3-14.56 11.8 0 6.5 6.53 11.8 14.56 11.8 8.03 0 14.56-5.3 14.56-11.8 0-6.5-6.53-11.8-14.56-11.8Zm0 18.26c-4.38 0-7.94-2.89-7.94-6.44 0-3.56 3.56-6.45 7.94-6.45 4.38 0 7.94 2.89 7.94 6.45 0 3.55-3.57 6.44-7.94 6.44Zm-101.41 9.88h-8.34v8.34h8.34v-8.34Z" fill="#1D1E1C"/><path d="M16.66 3.15h-16.66v16.66h8.33l8.33 8.34v-8.34h8.34l-8.34-8.33v-8.33Zm25.01 33.33-8.33-8.33v25h16.66v-16.67h-8.33Zm-16.67 0h-8.34v8.33h8.33v-8.33Zm16.67-16.67h-8.33v8.34h8.33v-8.34Zm-8.34-8.33h-8.33v8.33h8.33v-8.33Zm16.67-8.33h-8.34l8.33 8.33v-8.33Zm-50 33.33v16.67h16.66l-16.66-16.67Z" fill="#1D1E1C"/></svg>