<svg viewBox="0 0 146 30" fill="none" xmlns="http://www.w3.org/2000/svg"><path d="M49.3 26.8a1.14 1.14 0 0 0-.4-.8c-.32-.23-.7-.34-1.1-.31a2.74 2.74 0 0 0-.8.13c-.11.04-.22.1-.31.17a.53.53 0 0 0-.19.26h-1.32c.07-.25.2-.47.37-.66.17-.19.37-.34.6-.46.24-.12.5-.21.77-.26a4.83 4.83 0 0 1 2.1.1c.31.1.6.28.85.5.23.2.41.47.53.76.12.32.18.65.17.99 0 .33-.05.66-.17.97a2.08 2.08 0 0 1-1.35 1.25c-.4.13-.83.18-1.25.18-.28 0-.56-.03-.83-.07a2.96 2.96 0 0 1-.8-.25 2.2 2.2 0 0 1-.62-.43 1.43 1.43 0 0 1-.37-.66h1.3c.06.1.13.17.21.24.1.07.21.12.32.17l.4.1.4.02c.4.03.8-.08 1.11-.3a1.06 1.06 0 0 0 .4-.8h-2.39v-.83h2.38Zm2.55 2.74v-4.68h1.26v1.9h.9l1.52-1.9h1.45l-1.87 2.23 2.02 2.45h-1.48l-1.55-1.9h-.99v1.9h-1.26Zm8.72-4.75c.42 0 .83.05 1.24.17.33.11.63.28.9.5.25.2.45.47.58.76.24.64.24 1.34 0 1.97-.12.3-.3.55-.54.77-.27.22-.58.39-.91.49a4.85 4.85 0 0 1-2.5-.01c-.33-.1-.64-.27-.9-.49-.24-.2-.42-.47-.54-.76a2.58 2.58 0 0 1-.18-.99c0-.33.06-.67.18-.98a2 2 0 0 1 .54-.76c.27-.22.58-.39.9-.5a4 4 0 0 1 1.24-.17m0 3.94c.25 0 .5-.03.74-.11a1.34 1.34 0 0 0 .8-.8c.06-.2.1-.4.09-.6 0-.2-.03-.41-.1-.6a1.29 1.29 0 0 0-.79-.81 2.39 2.39 0 0 0-1.48 0c-.19.07-.36.18-.5.32-.13.14-.23.3-.3.48a1.85 1.85 0 0 0 0 1.2 1.27 1.27 0 0 0 .8.8c.24.09.49.13.74.12Zm6.82.89c-.41 0-.83-.05-1.23-.18a2.4 2.4 0 0 1-.88-.49 1.9 1.9 0 0 1-.53-.75 2.6 2.6 0 0 1-.18-.97c0-.34.06-.67.19-.98.11-.3.3-.56.53-.77.26-.22.57-.4.9-.5a4.5 4.5 0 0 1 2.13-.1 2.19 2.19 0 0 1 1.3.76c.16.2.27.43.33.69h-1.29a.82.82 0 0 0-.43-.47 1.86 1.86 0 0 0-.82-.17 2 2 0 0 0-.72.13 1.26 1.26 0 0 0-.77.83 1.92 1.92 0 0 0 .01 1.17c.06.18.15.34.28.48.14.14.32.25.5.32a2 2 0 0 0 .73.11c.28.01.57-.05.83-.17a.81.81 0 0 0 .42-.47h1.31c-.05.25-.17.49-.33.7-.16.19-.36.35-.59.47-.24.13-.5.22-.77.27-.3.06-.6.09-.9.09m5.05-.09h-1.19v-4.68h1.28v3.2l3-3.2h1.15v4.68h-1.28v-3.15l-2.96 3.15Zm8.4.09a3.9 3.9 0 0 1-1.24-.18 2.6 2.6 0 0 1-.89-.49c-.23-.2-.41-.46-.53-.76a2.6 2.6 0 0 1-.17-.96c0-.34.06-.67.18-.98a2 2 0 0 1 .54-.77c.26-.22.56-.4.89-.5a4.4 4.4 0 0 1 2.13-.1 2.02 2.02 0 0 1 1.28.76c.16.2.27.43.32.69h-1.32a.79.79 0 0 0-.43-.47 1.84 1.84 0 0 0-.8-.17c-.26 0-.5.04-.74.13a1.26 1.26 0 0 0-.77.83 2.1 2.1 0 0 0 .01 1.17c.06.18.15.34.29.48.14.14.3.24.5.31a2 2 0 0 0 .72.12c.29.01.58-.05.84-.17.2-.1.34-.27.42-.47h1.3c-.05.25-.16.49-.33.69-.16.2-.36.36-.58.48-.25.13-.5.22-.78.27-.3.06-.6.09-.9.09m8.53-4.76v.88h-2v3.8h-1.25v-3.8h-2v-.88h5.25Zm1.96 2.69a1.28 1.28 0 0 0 .92 1.13 2.24 2.24 0 0 0 1.41-.02.8.8 0 0 0 .5-.4h1.3c-.06.24-.19.45-.36.62a2.1 2.1 0 0 1-.59.42c-.24.11-.5.2-.75.24a4.97 4.97 0 0 1-2.1-.1c-.33-.1-.63-.26-.9-.48a2 2 0 0 1-.52-.76 2.66 2.66 0 0 1 .01-1.97 2 2 0 0 1 .53-.75c.26-.23.56-.4.88-.51.78-.24 1.6-.24 2.38 0a2.4 2.4 0 0 1 1.37 1.22 2.4 2.4 0 0 1 .13 1.36h-4.2Zm3-.76a1.06 1.06 0 0 0-.43-.84c-.3-.2-.66-.3-1.03-.28-.21 0-.42.02-.63.09a1.4 1.4 0 0 0-.45.24 1.2 1.2 0 0 0-.44.79h2.98Zm2.58-1.93h1.53l1.78 2.23 1.77-2.23h1.5v4.68h-1.26v-3.36l-1.87 2.31h-.3l-1.9-2.3v3.35h-1.25v-4.68Zm11.96 4.12c-.21.22-.48.4-.77.48a3.85 3.85 0 0 1-1.92.06 2.13 2.13 0 0 1-.68-.27 1.38 1.38 0 0 1-.46-.45 1.2 1.2 0 0 1 .03-1.27c.13-.19.31-.34.53-.44.24-.12.5-.2.77-.25.31-.06.63-.09.94-.09h1.51a1.07 1.07 0 0 0-.3-.8 1.45 1.45 0 0 0-1-.29c-.26 0-.5.03-.74.11a.65.65 0 0 0-.4.39h-1.32c.04-.24.15-.46.31-.63.17-.18.36-.32.58-.43.24-.12.5-.2.76-.24a4.88 4.88 0 0 1 1.87.05c.3.06.57.2.81.38.25.2.44.47.53.77.1.32.14.64.14.97v2.51h-1.11l-.08-.56Zm-.07-1.5h-1.24c-.22 0-.44 0-.65.03-.2.03-.37.1-.54.2a.46.46 0 0 0-.23.41.53.53 0 0 0 .31.53c.23.13.5.19.75.18.22 0 .44-.02.65-.08a1.15 1.15 0 0 0 .86-.64c.08-.2.12-.4.12-.62m-54.64-9.31h4.75l-7.54-5.74.04-.02 7.27-5.38h-4.64l-5.91 4.17v-4.17h-3.46v11.14h3.46v-4.49l.04.03 5.99 4.46Zm57.78 0v-11.14h-4.59l-4.5 6.72h-.41v-.01l-4.5-6.71h-4.58v11.14h3.36v-7.26h.16l.01.01 4.1 5.8h3.32l4.1-5.81h.17v7.26h3.36Zm34.06-4.26h-3.53a4.17 4.17 0 0 1-3.7 1.98c-2.24 0-4.05-1.48-4.05-3.29s1.81-3.28 4.04-3.28a4.2 4.2 0 0 1 3.61 1.8h3.58c-.83-2.67-3.78-4.54-7.2-4.54-4.08 0-7.41 2.7-7.41 6.01 0 3.32 3.33 6.02 7.42 6.02a8.57 8.57 0 0 0 4.68-1.35 6.01 6.01 0 0 0 2.56-3.36m-24.01-7.31c-4.09 0-7.42 2.7-7.42 6 0 3.32 3.33 6.02 7.42 6.02s7.42-2.7 7.42-6.02c0-3.31-3.33-6-7.42-6Zm0 9.3c-2.23 0-4.05-1.48-4.05-3.29s1.82-3.28 4.05-3.28c2.23 0 4.05 1.47 4.05 3.28 0 1.81-1.82 3.29-4.05 3.29Zm-31.34-1.98h-3.54c-.64 1.2-2.1 1.98-3.7 1.98-2.23 0-4.05-1.48-4.05-3.29s1.82-3.28 4.05-3.28a4.19 4.19 0 0 1 3.6 1.8h3.6c-.84-2.67-3.8-4.54-7.2-4.54-4.1 0-7.42 2.7-7.42 6.01 0 3.32 3.33 6.02 7.42 6.02a8.54 8.54 0 0 0 4.67-1.35 6.01 6.01 0 0 0 2.57-3.36m-24.02-7.31c-4.1 0-7.42 2.7-7.42 6 0 3.32 3.33 6.02 7.42 6.02 4.1 0 7.42-2.7 7.42-6.02 0-3.31-3.33-6-7.42-6Zm0 9.3c-2.23 0-4.05-1.48-4.05-3.29s1.82-3.28 4.05-3.28c2.23 0 4.04 1.47 4.04 3.28 0 1.81-1.81 3.29-4.04 3.29Zm-56.54-.9h-5v5h5v-5Zm0-15h-10v10h5l5 5v-5h5l-5-5v-5Zm15 20-5-5v15h10v-10h-5Zm-10.01 0h-5v5h5v-5Zm10.01-10.01h-5v5h5v-5Z" fill="#fff"/><path d="M20.08 5h-5v5h5v-5Zm10-5h-5l5 5v-5Zm-29.98 20v10h9.99l-10-10Z" fill="#fff"/></svg>