<svg viewBox="0 0 30 30" fill="none" xmlns="http://www.w3.org/2000/svg"><path d="M26.02 14.04c.29 0 .48-.19.48-.48s-.2-.48-.48-.48h-3.35v-1.91h3.35c.29 0 .48-.2.48-.48 0-.29-.2-.48-.48-.48h-3.35v-1.92a.91.91 0 0 0-.96-.96h-1.92v-3.35c0-.29-.19-.48-.48-.48s-.48.2-.48.48v3.35h-1.91v-3.35c0-.29-.2-.48-.48-.48-.29 0-.48.2-.48.48v3.35h-1.92v-3.35c0-.29-.19-.48-.48-.48s-.48.2-.48.48v3.35h-1.91v-3.35c0-.29-.2-.48-.48-.48-.29 0-.48.2-.48.48v3.35h-1.92a.91.91 0 0 0-.96.96v1.92h-3.35c-.29 0-.48.19-.48.48s.2.48.48.48h3.35v1.91h-3.35c-.29 0-.48.2-.48.48 0 .29.2.48.48.48h3.35v1.92h-3.35c-.29 0-.48.19-.48.48s.2.48.48.48h3.35v1.91h-3.35c-.29 0-.48.2-.48.48 0 .29.2.48.48.48h3.35v1.92c0 .57.39.96.96.96h1.92v3.35c0 .29.19.48.48.48s.48-.2.48-.48v-3.35h1.91v3.35c0 .29.2.48.48.48.29 0 .48-.2.48-.48v-3.35h1.92v3.35c0 .29.19.48.48.48s.48-.2.48-.48v-3.35h1.91v3.35c0 .29.2.48.48.48.29 0 .48-.2.48-.48v-3.35h1.92c.57 0 .96-.39.96-.96v-1.92h3.35c.29 0 .48-.19.48-.48s-.2-.48-.48-.48h-3.35v-1.91h3.35c.29 0 .48-.2.48-.48 0-.29-.2-.48-.48-.48h-3.35v-1.92h3.35Zm-5.27 6.71h-11.5v-11.5h11.5v11.5Z" fill="#fff"/></svg>