<svg viewBox="0 0 30 30" fill="none" xmlns="http://www.w3.org/2000/svg"><path d="M25.54 14.05h-.96v-6.13c0-.48-.38-.57-.95-.57h-7.29l2.78-2.97c.2-.2.29-.39-.1-.68-.28-.28-.57 0-.76.2l-3.26 3.45-3.35-3.55c-.2-.2-.58-.48-.87-.2-.28.3-.19.58 0 .78l2.88 2.97h-7.29c-.57 0-.95.1-.95.57v6.13h-.96c-.58 0-.96.1-.96.58v3.83c0 .58.38 1.34.96 1.34h.96v5.37c0 .58.38 1.34.96 1.34h17.25c.57 0 .95-.76.95-1.34v-5.37h.96c.58 0 .96-.76.96-1.34v-3.83c0-.48-.38-.58-.96-.58Zm-21.08 4.8v-3.84h1.92v3.84h-1.92Zm18.2 5.75h-15.33v-15.34h15.34v15.34Zm2.88-5.75h-1.91v-3.84h1.91v3.84Z" fill="#fff"/><path d="M18.83 11.75a1.92 1.92 0 0 0 0 3.83c1.06 0 1.92-.85 1.92-1.9 0-1.06-.86-1.93-1.92-1.93Zm0 2.88c-.57 0-.95-.38-.95-.96 0-.57.38-.96.95-.96.58 0 .96.39.96.96 0 .58-.38.96-.96.96Zm-7.66.96a1.92 1.92 0 0 0 0-3.83 1.92 1.92 0 1 0 0 3.83Zm0-2.88c.57 0 .96.39.96.96 0 .58-.39.96-.96.96-.58 0-.96-.38-.96-.96 0-.57.38-.96.96-.96Zm8.63 7.09c0-.57-.4-.95-.97-.95h-7.66c-.58 0-.96.38-.96.95v1.92c0 .58.38.96.96.96h7.66c.58 0 .96-.38.96-.96v-1.92Zm-8.63 1.54v-1.92h1.91v1.92h-1.91Zm2.87 0v-1.92h1.92v1.92h-1.92Zm4.8 0h-1.92v-1.92h1.91v1.92Z" fill="#fff"/></svg>