<svg viewBox="0 0 21 12" fill="none" xmlns="http://www.w3.org/2000/svg"><path fill-rule="evenodd" clip-rule="evenodd" d="M20.08.81c.14-.47 0-.81-.67-.81h-2.21c-.56 0-.82.3-.96.62 0 0-1.13 2.74-2.72 4.52-.51.52-.75.68-1.03.68-.14 0-.34-.16-.34-.63v-4.38c0-.56-.16-.81-.63-.81h-3.47c-.36 0-.57.26-.57.5 0 .54.8.66.88 2.16v3.26c0 .71-.13.84-.4.84-.76 0-2.58-2.75-3.66-5.9-.21-.61-.43-.86-.99-.86h-2.2c-.64 0-.77.3-.77.63 0 .58.75 3.49 3.5 7.33 1.82 2.62 4.39 4.04 6.73 4.04 1.4 0 1.58-.32 1.58-.86v-1.98c0-.63.14-.76.58-.76.33 0 .9.16 2.2 1.43 1.5 1.5 1.75 2.17 2.6 2.17h2.2c.63 0 .95-.32.76-.94-.2-.62-.91-1.52-1.86-2.6-.52-.6-1.29-1.26-1.52-1.59-.33-.42-.23-.6 0-.98 0 0 2.69-3.79 2.97-5.08Z" fill="#fff"/></svg>